<svg width="32" height="32" viewBox="0 0 32 32" fill="none" xmlns="http://www.w3.org/2000/svg">
<g clip-path="url(#clip0_104_1278)">
<path d="M18.3628 28H13.6214C12.9633 28 12.4248 27.461 12.4248 26.8022C12.4248 26.1435 12.9633 25.6045 13.6214 25.6045H18.3628C19.021 25.6045 19.5594 26.1435 19.5594 26.8022C19.5594 27.461 19.021 28 18.3628 28Z" fill="#6F717C"/>
<path d="M17.1819 6.39551H14.8187C14.1605 6.39551 13.6221 5.85652 13.6221 5.19775C13.6221 4.53899 14.1605 4 14.8187 4H17.1819C17.84 4 18.3785 4.53899 18.3785 5.19775C18.3785 5.85652 17.84 6.39551 17.1819 6.39551Z" fill="#6F717C"/>
<path d="M25.3034 22.101H24.5556V15.3637C24.5556 10.7823 20.7115 7.06921 16 7.06921C11.2885 7.06921 7.44444 10.7972 7.44444 15.3786V22.116H6.69658C6.03846 22.116 5.5 22.655 5.5 23.3138C5.5 23.9725 6.03846 24.5115 6.69658 24.5115H25.3034C25.9615 24.5115 26.5 23.9725 26.5 23.3138C26.5 22.655 25.9615 22.116 25.3034 22.116V22.101ZM9.83761 15.3786C9.83761 12.1148 12.6047 9.46472 16 9.46472C19.3953 9.46472 22.1624 12.1148 22.1624 15.3786V22.116H9.83761V15.3786Z" fill="#6F717C"/>
</g>
<defs>
<clipPath id="clip0_104_1278">
<rect width="21" height="24" fill="white" transform="translate(5.5 4)"/>
</clipPath>
</defs>
</svg>
