<svg width="32" height="33" viewBox="0 0 32 33" fill="none" xmlns="http://www.w3.org/2000/svg">
<g clip-path="url(#clip0_358_2172)">
<path d="M5.20235 28.1924C4.88676 28.1924 4.58619 28.0721 4.34574 27.8467C3.87987 27.3808 3.87987 26.6144 4.34574 26.1485L25.9563 4.538C26.4221 4.07213 27.1886 4.07213 27.6544 4.538C28.1203 5.00388 28.1203 5.77031 27.6544 6.23619L6.05896 27.8467C5.8185 28.0872 5.51794 28.1924 5.20235 28.1924Z" fill="#6F717C"/>
<path d="M26.7978 28.1923C26.4822 28.1923 26.1817 28.0721 25.9412 27.8466L4.34574 6.25114C3.87987 5.77024 3.87987 5.01883 4.34574 4.53792C4.81162 4.05702 5.57805 4.07205 6.05896 4.53792L27.6544 26.1334C28.1203 26.5993 28.1203 27.3657 27.6544 27.8316C27.414 28.0721 27.1134 28.1772 26.7978 28.1772V28.1923Z" fill="#6F717C"/>
</g>
<defs>
<clipPath id="clip0_358_2172">
<rect width="24" height="24" fill="white" transform="translate(4 4.19232)"/>
</clipPath>
</defs>
</svg>
