<svg width="33" height="32" viewBox="0 0 33 32" fill="none" xmlns="http://www.w3.org/2000/svg">
<g clip-path="url(#clip0_523_3854)">
<path d="M22.2189 0.0744654L24.6629 0.37434C25.7373 0.506163 26.7895 0.798994 27.761 1.27698C31.6211 3.17686 32.1583 6.82063 32.3487 11.3741C32.508 15.1628 32.6239 19.4314 32.2469 23.201C31.6634 29.0274 28.142 31.6226 22.4658 31.8752C18.765 32.0392 14.2136 32.0433 10.5138 31.8752C3.12534 31.5411 0.722649 27.4123 0.633959 20.4941C0.632951 20.3884 0.658147 20.2405 0.636982 20.1197C0.58659 19.8309 0.542245 19.5401 0.546276 19.2473C0.580543 16.7104 0.438437 14.1575 0.532167 11.6267C0.621864 9.20654 0.756915 6.39094 2.02075 4.24252C3.98907 0.89761 7.79065 0.164025 11.3715 0H20.9944C21.4036 0 21.8128 0.0251572 22.2189 0.0744654ZM10.4483 3.53711C4.26521 3.89434 4.00721 6.76528 3.84091 12.1731C3.74718 15.2111 3.71796 18.7894 3.94674 21.7982C4.43252 28.1872 7.73219 28.0352 13.2259 28.1681C16.3835 28.2445 20.0349 28.2777 23.1653 28.0624C28.8445 27.6719 28.9916 24.2385 29.1418 19.4989C29.2395 16.4307 29.2637 12.8141 29.036 9.77409C28.6782 4.99723 26.857 3.71522 22.1665 3.5039C18.5685 3.34189 14.0362 3.33082 10.4483 3.53811V3.53711Z" fill="#C5C6CD"/>
<path d="M24.9049 10.2588C25.9157 10.2588 26.7351 9.44068 26.7351 8.43143C26.7351 7.42217 25.9157 6.604 24.9049 6.604C23.8941 6.604 23.0746 7.42217 23.0746 8.43143C23.0746 9.44068 23.8941 10.2588 24.9049 10.2588Z" fill="#C5C6CD"/>
<path d="M24.3022 16.2526C24.3022 20.5928 20.7788 24.1108 16.433 24.1108C12.0871 24.1108 8.56372 20.5928 8.56372 16.2526C8.56372 11.9125 12.0871 8.39453 16.433 8.39453C20.7788 8.39453 24.3022 11.9125 24.3022 16.2526ZM20.9642 16.2547C20.9642 13.755 18.9354 11.7284 16.4319 11.7284C13.9285 11.7284 11.8997 13.755 11.8997 16.2547C11.8997 18.7543 13.9285 20.7809 16.4319 20.7809C18.9354 20.7809 20.9642 18.7543 20.9642 16.2547Z" fill="#C5C6CD"/>
</g>
<defs>
<clipPath id="clip0_523_3854">
<rect width="32" height="32" fill="white" transform="translate(0.5)"/>
</clipPath>
</defs>
</svg>
