<svg width="209" height="28" viewBox="0 0 209 28" fill="none" xmlns="http://www.w3.org/2000/svg">
<path d="M36.3925 6.26615L26.0324 0.284583C25.3758 -0.0948609 24.5658 -0.0948609 23.9092 0.284583L14.082 5.95492L17.2796 11.4931L24.3057 7.43858C24.715 7.19983 25.2223 7.19983 25.6359 7.43858L30.3981 10.1885C30.8074 10.4272 31.0632 10.8664 31.0632 11.3396V16.8351C31.0632 17.3084 30.8117 17.7475 30.3981 17.9863L23.372 22.0408L26.5696 27.5789L36.3925 21.9086C37.049 21.5292 37.454 20.83 37.454 20.0711V8.10794C37.454 7.34905 37.049 6.64985 36.3925 6.27041V6.26615Z" fill="#00246A"/>
<path d="M13.1484 20.5614C12.7391 20.8002 12.2317 20.8002 11.8182 20.5614L7.05594 17.8115C6.64666 17.5728 6.39085 17.1336 6.39085 16.6604V8.55139H0V19.8963C0 20.6552 0.405024 21.3544 1.06159 21.7339L11.4217 27.7154C12.0782 28.0949 12.8883 28.0949 13.5449 27.7154L23.372 22.0451L20.1745 16.5069L13.1484 20.5614Z" fill="#1253EC"/>
<path d="M45.981 2.77234H50.5684V20.9089H60.0886V25.2192H45.981V2.77234Z" fill="#131415"/>
<path d="M62.1309 17.221C62.1139 12.4161 65.742 8.78796 70.5639 8.78796C75.3859 8.78796 78.9799 12.4161 78.997 17.221C78.9799 22.0259 75.356 25.654 70.5639 25.654C65.7719 25.654 62.1139 22.0259 62.1309 17.221ZM74.7506 17.221C74.7336 14.6331 72.9984 12.8169 70.5639 12.8169C68.1295 12.8169 66.3645 14.6288 66.3773 17.221C66.3602 19.8089 68.0997 21.6251 70.5639 21.6251C73.0282 21.6251 74.7336 19.8131 74.7506 17.221Z" fill="#131415"/>
<path d="M81.2564 13.9978C81.2393 7.41087 86.219 2.34167 92.6951 2.34167C96.8349 2.34167 100.339 4.41796 102.275 7.61125L98.2759 9.75148C97.0992 7.87558 95.0826 6.68183 92.6951 6.68183C88.8197 6.68183 85.8566 9.85807 85.8737 13.9978C85.8566 18.1376 88.8197 21.3138 92.6951 21.3138C95.0826 21.3138 97.0992 20.1201 98.2759 18.2442L102.275 20.3844C100.339 23.5777 96.8349 25.654 92.6951 25.654C86.2147 25.654 81.2393 20.5848 81.2564 13.9978Z" fill="#131415"/>
<path d="M104.492 17.221C104.475 12.4161 108.103 8.78796 112.925 8.78796C117.747 8.78796 121.341 12.4161 121.358 17.221C121.341 22.0259 117.717 25.654 112.925 25.654C108.133 25.654 104.475 22.0259 104.492 17.221ZM117.111 17.221C117.094 14.6331 115.359 12.8169 112.925 12.8169C110.49 12.8169 108.725 14.6288 108.738 17.221C108.721 19.8089 110.461 21.6251 112.925 21.6251C115.389 21.6251 117.094 19.8131 117.111 17.221Z" fill="#131415"/>
<path d="M124.3 9.22284H128.704V11.5805H128.827C129.68 9.85809 131.462 8.79224 133.756 8.79224C137.354 8.79224 139.477 11.4441 139.49 15.7373V25.2234H135.086V16.4792C135.069 14.1556 133.969 12.8212 132.11 12.8212C130.251 12.8212 128.717 14.1215 128.7 17.1315V25.2234H124.295V9.22284H124.3Z" fill="#131415"/>
<path d="M143.242 9.22284H147.646V11.5805H147.77C148.622 9.85809 150.405 8.79224 152.698 8.79224C156.297 8.79224 158.42 11.4441 158.433 15.7373V25.2234H154.028V16.4792C154.011 14.1556 152.911 12.8212 151.053 12.8212C149.194 12.8212 147.659 14.1215 147.642 17.1315V25.2234H143.238V9.22284H143.242Z" fill="#131415"/>
<path d="M161.344 17.221C161.361 12.2754 164.908 8.78796 169.747 8.78796C174.586 8.78796 177.916 12.2754 177.903 17.221C177.92 17.7028 177.873 18.1803 177.81 18.6492H165.812C166.17 20.7255 167.859 22.06 170.059 22.06C171.717 22.06 172.894 21.3011 173.499 20.0434L177.345 21.5015C176.044 24.0424 173.516 25.6583 170.059 25.6583C164.866 25.6583 161.361 22.077 161.344 17.2253V17.221ZM173.405 15.2982C173.188 13.6397 171.794 12.382 169.747 12.382C167.812 12.382 166.337 13.5118 165.872 15.2982H173.405Z" fill="#131415"/>
<path d="M180.069 17.221C180.052 12.4161 183.744 8.78796 188.596 8.78796C191.977 8.78796 194.718 10.553 196.036 13.3157L192.131 14.9273C191.495 13.5928 190.225 12.8211 188.596 12.8211C186.068 12.8211 184.303 14.6331 184.316 17.2253C184.299 19.8131 186.068 21.6294 188.596 21.6294C190.225 21.6294 191.495 20.8534 192.131 19.519L196.036 21.1305C194.718 23.889 191.973 25.6583 188.596 25.6583C183.744 25.6583 180.052 22.0301 180.069 17.2253V17.221Z" fill="#131415"/>
<path d="M197.707 9.22277H200.372V5.25354H204.776V9.22277H208.498V12.6633H204.776V19.2674C204.759 20.8192 205.381 21.4673 206.852 21.4673C207.347 21.4673 207.892 21.3905 208.493 21.22V25.2191C207.764 25.4834 206.912 25.654 205.952 25.654C202.354 25.654 200.355 23.454 200.372 19.5146V12.6633H197.707V9.22277Z" fill="#131415"/>
</svg>
