<svg width="32" height="32" viewBox="0 0 32 32" fill="none" xmlns="http://www.w3.org/2000/svg">
<g clip-path="url(#clip0_104_1283)">
<path d="M26.7985 9.37624H5.2015C4.54068 9.37624 4 8.84158 4 8.18812C4 7.53465 4.54068 7 5.2015 7H26.7985C27.4593 7 28 7.53465 28 8.18812C28 8.84158 27.4593 9.37624 26.7985 9.37624Z" fill="#6F717C"/>
<path d="M26.7985 17.1881H5.2015C4.54068 17.1881 4 16.6535 4 16C4 15.3465 4.54068 14.8119 5.2015 14.8119H26.7985C27.4593 14.8119 28 15.3465 28 16C28 16.6535 27.4593 17.1881 26.7985 17.1881Z" fill="#6F717C"/>
<path d="M26.7985 25H5.2015C4.54068 25 4 24.4654 4 23.8119C4 23.1584 4.54068 22.6238 5.2015 22.6238H26.7985C27.4593 22.6238 28 23.1584 28 23.8119C28 24.4654 27.4593 25 26.7985 25Z" fill="#6F717C"/>
</g>
<defs>
<clipPath id="clip0_104_1283">
<rect width="24" height="18" fill="white" transform="translate(4 7)"/>
</clipPath>
</defs>
</svg>
