<svg width="32" height="32" viewBox="0 0 32 32" fill="none" xmlns="http://www.w3.org/2000/svg">
<g clip-path="url(#clip0_104_1274)">
<path d="M24.8218 28H7.1782C6.53019 28 6 27.4603 6 26.8007C6 21.1942 10.4919 16.6221 16 16.6221C21.5081 16.6221 26 21.1942 26 26.8007C26 27.4603 25.4698 28 24.8218 28ZM8.44477 25.6015H23.5552C22.9809 21.8838 19.8144 19.0206 16 19.0206C12.1856 19.0206 9.01915 21.8838 8.44477 25.6015Z" fill="#6F717C"/>
<path d="M16.0002 14.43C13.1283 14.43 10.7866 12.0877 10.7866 9.215C10.7866 6.34233 13.1283 4 16.0002 4C18.872 4 21.2137 6.34233 21.2137 9.215C21.2137 12.0877 18.872 14.43 16.0002 14.43ZM16.0002 6.35706C14.4243 6.35706 13.143 7.63871 13.143 9.215C13.143 10.7913 14.4243 12.0729 16.0002 12.0729C17.576 12.0729 18.8573 10.7913 18.8573 9.215C18.8573 7.63871 17.576 6.35706 16.0002 6.35706Z" fill="#6F717C"/>
</g>
<defs>
<clipPath id="clip0_104_1274">
<rect width="20" height="24" fill="white" transform="translate(6 4)"/>
</clipPath>
</defs>
</svg>
