<svg width="81" height="60" viewBox="0 0 81 60" fill="none" xmlns="http://www.w3.org/2000/svg">
<path d="M78.5932 13.4275L56.393 0.60982C54.9861 -0.203273 53.2503 -0.203273 51.8434 0.60982L30.7852 12.7605L37.6371 24.628L52.693 15.9398C53.57 15.4282 54.6572 15.4282 55.5434 15.9398L65.7482 21.8325C66.6252 22.3441 67.1734 23.2851 67.1734 24.2992V36.0753C67.1734 37.0894 66.6344 38.0304 65.7482 38.542L50.6922 47.2302L57.5441 59.0977L78.5932 46.947C80.0001 46.1339 80.868 44.6356 80.868 43.0094V17.3742C80.868 15.748 80.0001 14.2497 78.5932 13.4366V13.4275Z" fill="#00246A"/>
<path d="M28.7844 44.0602C27.9074 44.5718 26.8202 44.5718 25.934 44.0602L15.7293 38.1676C14.8522 37.656 14.3041 36.715 14.3041 35.7009V18.3245H0.609375V42.635C0.609375 44.2612 1.47728 45.7595 2.88421 46.5726L25.0844 59.3902C26.4913 60.2033 28.2271 60.2033 29.6341 59.3902L50.6923 47.2395L43.8404 35.372L28.7844 44.0602Z" fill="#1253EC"/>
</svg>
